<svg width="80" height="80" viewBox="0 0 80 80" fill="none" xmlns="http://www.w3.org/2000/svg">
<path fill-rule="evenodd" clip-rule="evenodd" d="M42.6161 68.9931C42.3633 68.9496 42.1115 69.0749 41.9936 69.3027C41.8758 69.5305 41.9189 69.8082 42.1003 69.9895C42.098 69.9921 42.098 69.9921 42.0981 69.9922C43.7231 71.6156 46.0734 71.6301 47.6124 70.2517C49.6834 68.3968 51.8625 66.2274 53.8795 63.8667C53.8975 62.7601 53.819 59.8226 53.731 58.6705C53.5585 59.6135 53.0838 60.1417 52.4553 61.029C51.1904 62.8146 50.0304 63.9031 46.6207 67.2436C45.2948 68.5427 43.973 69.255 42.6161 68.9931Z" fill="black"/>
<path fill-rule="evenodd" clip-rule="evenodd" d="M53.5588 56.1626C53.4171 53.8909 53.2893 52.3127 52.9462 50.4958C52.9462 50.4958 53.0064 51.6311 52.0337 53.0771C49.9558 56.166 46.6548 59.8727 38.6005 67.4116C37.1758 68.7449 35.9988 69.319 34.6811 68.8182C34.428 68.7257 34.1446 68.8216 33.9996 69.0489C33.8547 69.2762 33.8874 69.5736 34.078 69.7641C34.0773 69.765 34.0775 69.7651 34.0776 69.7652C35.7026 71.3887 38.0183 71.3712 39.5919 70.0247C46.8576 63.8077 48.7287 62.0325 53.5588 56.1626Z" fill="black"/>
<path fill-rule="evenodd" clip-rule="evenodd" d="M24.5899 66.5638C24.4441 66.414 24.2231 66.3653 24.0278 66.4398C23.8324 66.5145 23.7002 66.698 23.6912 66.9068C23.6342 68.056 24.0504 69.2242 24.9372 70.0917C26.579 71.698 28.9848 71.3548 30.8224 70.0272C39.6183 63.6727 46.43 56.4143 52.5874 47.9929C52.5494 47.2108 52.0604 44.5212 51.7319 43.0527C51.7539 43.7905 51.6193 44.616 51.1433 45.236C45.28 52.8739 38.3067 60.5741 30.5846 66.6263C28.2902 68.4246 26.9186 68.9515 24.5902 66.5639C24.5901 66.5639 24.5901 66.5638 24.5899 66.5638Z" fill="black"/>
<path fill-rule="evenodd" clip-rule="evenodd" d="M63.2273 56.5387C63.0358 56.7092 62.9766 56.984 63.0813 57.2183C63.1859 57.4525 63.43 57.592 63.6849 57.5632C63.6854 57.5665 63.6854 57.5665 63.6856 57.5665C65.9679 57.3083 67.4448 55.4797 67.3266 53.4172C67.1677 50.6414 66.8304 47.5851 66.2422 44.5363C65.3883 43.8323 63.4167 42.3285 62.4612 41.6789C62.4612 41.6789 62.7729 42.2623 62.8965 42.6269C63.6758 44.9258 63.9475 47.1589 64.3566 52.3169C64.5033 54.1672 64.2782 55.641 63.2273 56.5387Z" fill="black"/>
<path fill-rule="evenodd" clip-rule="evenodd" d="M60.019 39.9834C58.1545 38.6778 56.841 37.7937 55.2067 36.9292C55.2067 36.9292 56.1318 37.5899 56.6559 39.252C57.7753 42.8024 58.615 47.6945 59.4872 58.6919C59.6415 60.637 59.3564 61.9153 58.1434 62.6331C57.9132 62.7734 57.8115 63.0548 57.8988 63.3098C57.9861 63.5648 58.239 63.7248 58.5068 63.6945C58.5071 63.6956 58.5073 63.6956 58.5074 63.6956C60.7898 63.4372 62.22 61.6159 62.1485 59.5461C61.818 49.9893 61.5968 47.4195 60.019 39.9834Z" fill="black"/>
<path fill-rule="evenodd" clip-rule="evenodd" d="M50.089 69.1172C49.8809 69.1379 49.7051 69.2802 49.6416 69.4794C49.5781 69.6786 49.6391 69.8965 49.7968 70.0338C50.6597 70.7948 51.8326 71.1977 53.0636 71.0453C55.3432 70.7632 56.5748 68.6683 56.6827 66.4038C57.1989 55.5651 55.771 45.7139 53.0261 35.6491C52.391 35.1912 49.9833 33.8966 48.6302 33.2378C49.2209 33.6807 49.7823 34.3005 49.9703 35.0591C52.2859 44.4056 53.9585 54.6584 53.8756 64.4694C53.8509 67.3845 53.4077 68.7854 50.0892 69.1171C50.0891 69.1171 50.089 69.1172 50.089 69.1172Z" fill="black"/>
<path fill-rule="evenodd" clip-rule="evenodd" d="M66.3414 32.6588C66.3554 32.9148 66.5335 33.1325 66.7818 33.1968C67.0301 33.261 67.2914 33.1571 67.4278 32.9398C67.4307 32.9416 67.4308 32.9415 67.4308 32.9415C68.652 30.9959 68.1431 28.7013 66.4569 27.5076C64.1878 25.9012 61.5878 24.2594 58.8375 22.8182C57.7546 23.0468 55.3497 23.6507 54.2461 23.9928C54.2461 23.9928 54.8965 24.1128 55.2586 24.2434C57.5418 25.0676 59.4572 26.2475 63.7449 29.1437C65.2832 30.1826 66.2949 31.2776 66.3414 32.6588Z" fill="black"/>
<path fill-rule="evenodd" clip-rule="evenodd" d="M51.3978 24.845C49.2146 25.4886 47.7044 25.9644 46.0094 26.7031C46.0094 26.7031 47.103 26.3918 48.7291 27.0184C52.2029 28.3569 56.5511 30.7505 65.6931 36.9254C67.31 38.0176 68.1317 39.0375 67.9365 40.4335C67.9026 40.701 68.0592 40.9558 68.3131 41.0466C68.5669 41.1373 68.8497 41.0393 68.993 40.8111C68.994 40.8115 68.994 40.8114 68.9941 40.8112C70.2153 38.8658 69.6829 36.6119 68.0201 35.3775C60.3424 29.6772 58.1953 28.2479 51.3978 24.845Z" fill="black"/>
<path fill-rule="evenodd" clip-rule="evenodd" d="M67.9838 50.7734C67.8703 50.949 67.872 51.1753 67.9881 51.349C68.1043 51.523 68.3126 51.611 68.5184 51.5733C69.6513 51.3732 70.6976 50.7075 71.3461 49.65C72.5469 47.6918 71.677 45.4227 69.9737 43.9265C61.8215 36.765 53.2294 31.7392 43.6491 27.6099C42.8951 27.8209 40.3816 28.8961 39.0229 29.5431C39.7374 29.3576 40.5723 29.3051 41.2826 29.6311C50.0336 33.6482 59.0923 38.7332 66.711 44.9151C68.9748 46.7519 69.7937 47.972 67.9839 50.7733C67.9839 50.7733 67.9839 50.7734 67.9838 50.7734Z" fill="black"/>
<path fill-rule="evenodd" clip-rule="evenodd" d="M49.6131 15.3351C49.822 15.484 50.1033 15.4804 50.3083 15.3263C50.5134 15.1722 50.595 14.9032 50.5102 14.6611C50.5134 14.6599 50.5134 14.6598 50.5134 14.6597C49.7536 12.492 47.6424 11.4592 45.6578 12.0332C42.9871 12.8058 40.0823 13.8147 37.2408 15.0664C36.7445 16.0556 35.7171 18.3123 35.2964 19.3884C35.2964 19.3884 35.7958 18.9547 36.1237 18.7532C38.1916 17.4819 40.3083 16.7201 45.246 15.1736C47.0174 14.6188 48.5042 14.5103 49.6131 15.3351Z" fill="black"/>
<path fill-rule="evenodd" clip-rule="evenodd" d="M34.1867 22.1466C33.3287 24.2548 32.7591 25.7322 32.2798 27.5179C32.2798 27.5179 32.7182 26.469 34.222 25.5883C37.4344 23.7069 42.0168 21.7997 52.5446 18.5024C54.4067 17.9192 55.7162 17.9126 56.6861 18.9357C56.874 19.1289 57.171 19.1654 57.4002 19.0235C57.6294 18.8816 57.729 18.5995 57.64 18.3452C57.6409 18.3446 57.6408 18.3445 57.6408 18.3444C56.8812 16.1766 54.7871 15.1875 52.7853 15.7178C43.5416 18.1664 41.0854 18.9539 34.1867 22.1466Z" fill="black"/>
<path fill-rule="evenodd" clip-rule="evenodd" d="M64.7996 25.3455C64.8662 25.5437 65.044 25.6835 65.2524 25.701C65.4607 25.7186 65.6596 25.6107 65.7582 25.4264C66.3083 24.4158 66.4402 23.1827 66.0177 22.0163C65.2354 19.8567 62.919 19.1219 60.6873 19.5207C50.0053 21.4291 40.7188 25.0131 31.5172 29.9287C31.2119 30.6497 30.4854 33.2852 30.1442 34.7508C30.4447 34.0765 30.924 33.3912 31.6219 33.039C40.2187 28.7019 49.8424 24.79 59.4259 22.688C62.2734 22.0634 63.7377 22.1838 64.7996 25.3453C64.7996 25.3454 64.7996 25.3454 64.7996 25.3455Z" fill="black"/>
<path fill-rule="evenodd" clip-rule="evenodd" d="M25.6391 17.6125C25.8857 17.5421 26.0582 17.3199 26.0656 17.0636C26.073 16.8072 25.9135 16.5755 25.6713 16.4909C25.6724 16.4877 25.6723 16.4877 25.6723 16.4876C23.5038 15.7299 21.3799 16.7366 20.5914 18.6461C19.5302 21.2159 18.5079 24.1159 17.7148 27.1179C18.1787 28.1227 19.3024 30.333 19.8815 31.333C19.8815 31.333 19.8539 30.6721 19.9006 30.2901C20.1961 27.8807 20.9202 25.7507 22.7899 20.9261C23.4605 19.1954 24.3027 17.9653 25.6391 17.6125Z" fill="black"/>
<path fill-rule="evenodd" clip-rule="evenodd" d="M21.3461 33.9202C22.4593 35.9054 23.2593 37.272 24.3565 38.76C24.3565 38.76 23.8097 37.7633 24.0589 36.0384C24.5908 32.3538 25.957 27.5821 29.943 17.2953C30.6481 15.4759 31.4595 14.4481 32.864 14.3276C33.1322 14.3011 33.3459 14.0917 33.3779 13.824C33.4099 13.5564 33.2514 13.3025 32.997 13.2136C32.9973 13.2125 32.9971 13.2125 32.997 13.2125C30.8285 12.4548 28.7497 13.4752 27.9161 15.3709C24.067 24.1247 23.1512 26.536 21.3461 33.9202Z" fill="black"/>
<path fill-rule="evenodd" clip-rule="evenodd" d="M42.9342 11.9808C43.1305 12.0524 43.3508 12.0004 43.4944 11.8484C43.638 11.6966 43.6775 11.4738 43.595 11.2817C43.1478 10.2215 42.266 9.34958 41.0906 8.95277C38.9145 8.21775 36.8958 9.57081 35.8161 11.5641C30.648 21.1055 27.6599 30.6005 25.7657 40.8594C26.1393 41.5476 27.7468 43.7588 28.6798 44.9394C28.34 44.2841 28.103 43.482 28.2629 42.7169C30.2321 33.2915 33.1741 23.3284 37.5059 14.5251C38.7929 11.9094 39.8001 10.8397 42.9339 11.9806C42.934 11.9808 42.934 11.9808 42.9342 11.9808Z" fill="black"/>
<path fill-rule="evenodd" clip-rule="evenodd" d="M12.4717 37.776C12.5703 37.5393 12.5043 37.2659 12.3084 37.1003C12.1126 36.9346 11.8321 36.915 11.615 37.0515C11.6131 37.0487 11.6131 37.0487 11.6129 37.0487C9.66862 38.2717 9.13139 40.5597 10.1326 42.367C11.4801 44.7988 13.11 47.4061 14.9625 49.898C16.0374 50.1618 18.4662 50.6614 19.6089 50.8321C19.6089 50.8321 19.075 50.4417 18.8055 50.1668C17.106 48.4336 15.8922 46.5395 13.2859 42.0697C12.3509 40.4662 11.9143 39.0407 12.4717 37.776Z" fill="black"/>
<path fill-rule="evenodd" clip-rule="evenodd" d="M22.5449 51.3001C24.7911 51.6676 26.3582 51.8942 28.2058 51.9642C28.2058 51.9642 27.0857 51.7702 25.8924 50.5C23.3435 47.7868 20.4645 43.7435 14.9074 34.2133C13.9245 32.5276 13.6268 31.2523 14.4083 30.0792C14.5548 29.8531 14.5244 29.5553 14.335 29.3634C14.1457 29.1716 13.8484 29.1372 13.6204 29.2806C13.6197 29.2798 13.6195 29.2799 13.6194 29.2799C11.6749 30.5029 11.1767 32.7645 12.139 34.5983C16.5829 43.0654 17.8972 45.2848 22.5449 51.3001Z" fill="black"/>
<path fill-rule="evenodd" clip-rule="evenodd" d="M18.8522 20.7428C19.0307 20.634 19.1273 20.4294 19.0981 20.2224C19.0689 20.0154 18.9194 19.8455 18.7177 19.7902C17.6101 19.479 16.3786 19.6247 15.3354 20.2962C13.404 21.5394 13.2032 23.9611 14.0884 26.0482C18.3258 36.0377 23.8861 44.294 30.7258 52.1713C31.4967 52.3084 34.2278 52.4303 35.7326 52.4369C35.0083 52.294 34.2336 51.9792 33.735 51.3772C27.5937 43.9608 21.6387 35.4487 17.4569 26.5733C16.2144 23.9361 16.006 22.4816 18.852 20.743L18.8522 20.7428Z" fill="black"/>
<path fill-rule="evenodd" clip-rule="evenodd" d="M20.0264 60.6425C19.9027 60.4178 19.6479 60.299 19.3962 60.3488C19.1447 60.3987 18.9543 60.6056 18.9257 60.8605C18.9222 60.8602 18.9222 60.8602 18.9222 60.8604C18.6661 63.143 20.1201 64.9898 22.1572 65.3337C24.8986 65.7965 27.9534 66.1478 31.0566 66.2531C31.933 65.5772 33.838 63.9898 34.6838 63.2028C34.6838 63.2028 34.0458 63.377 33.6628 63.4162C31.2481 63.6642 29.0106 63.4322 23.8909 62.683C22.0542 62.4143 20.6675 61.8667 20.0264 60.6425Z" fill="black"/>
<path fill-rule="evenodd" clip-rule="evenodd" d="M36.8803 61.1993C38.5682 59.6722 39.7224 58.5884 40.9292 57.1874C40.9292 57.1874 40.0789 57.9422 38.342 58.0832C34.6315 58.3843 29.6752 58.1142 18.7595 56.5169C16.8287 56.2344 15.6461 55.672 15.2162 54.3294C15.1307 54.0739 14.8789 53.9121 14.6109 53.9404C14.343 53.9689 14.1307 54.1798 14.1005 54.4477C14.0995 54.4477 14.0994 54.4478 14.0994 54.4479C13.8433 56.7306 15.3006 58.5304 17.3344 58.9212C26.725 60.7261 29.2797 61.0825 36.8803 61.1993Z" fill="black"/>
<path fill-rule="evenodd" clip-rule="evenodd" d="M10.6875 45.0339C10.7136 44.8264 10.614 44.6234 10.4339 44.5171C10.2539 44.4109 10.0279 44.422 9.85885 44.5451C8.9248 45.217 8.27103 46.2708 8.14555 47.5049C7.91329 49.7901 9.68145 51.4571 11.8651 52.0662C22.3172 54.9818 32.2391 55.7824 42.6623 55.3464C43.2502 54.8291 45.0482 52.7699 45.9916 51.5976C45.4283 52.0747 44.6991 52.4842 43.9176 52.4986C34.2903 52.6758 23.9222 52.0244 14.3758 49.7599C11.5395 49.0872 10.2723 48.3432 10.6875 45.0341C10.6875 45.0341 10.6875 45.034 10.6875 45.0339Z" fill="black"/>
</svg>
